<?xml version="1.0" encoding="UTF-8"?>
<svg width="800" height="600" viewBox="0 0 800 600" fill="none" xmlns="http://www.w3.org/2000/svg">
  <!-- Background -->
  <rect width="800" height="600" fill="#F5F5F5" fill-opacity="0.1"/>
  
  <!-- Football Field -->
  <rect x="100" y="100" width="600" height="400" fill="#4CAF50" stroke="#FFFFFF" stroke-width="4"/>
  <line x1="400" y1="100" x2="400" y2="500" stroke="#FFFFFF" stroke-width="2" stroke-dasharray="10 5"/>
  <circle cx="400" cy="300" r="50" stroke="#FFFFFF" stroke-width="2" fill="none"/>
  
  <!-- Players -->
  <g transform="translate(250, 250)">
    <circle cx="0" cy="0" r="20" fill="#FF5722"/>
    <path d="M-10 -10L10 10M-10 10L10 -10" stroke="white" stroke-width="2"/>
  </g>
  <g transform="translate(550, 350)">
    <circle cx="0" cy="0" r="20" fill="#2196F3"/>
    <path d="M-10 -10L10 10M-10 10L10 -10" stroke="white" stroke-width="2"/>
  </g>
  
  <!-- Ball -->
  <g transform="translate(400, 300)">
    <circle cx="0" cy="0" r="15" fill="#424242"/>
    <path d="M-10 -10L10 10M-10 10L10 -10" stroke="white" stroke-width="1"/>
  </g>
  
  <!-- Field Lines -->
  <rect x="150" y="150" width="500" height="300" stroke="#FFFFFF" stroke-width="2" fill="none"/>
  <circle cx="400" cy="300" r="80" stroke="#FFFFFF" stroke-width="2" fill="none"/>
</svg> 